# xmcd CD database file
#
# Track frame offsets:
#	183
#	16850
#	27358
#	40053
#	54908
#	70538
#	86713
#	101500
#	115538
#	128078
#	139320
#	155548
#	171515
#	186393
#	196935
#	207893
#
# Disc length: 2947 seconds
#
# Revision: 0
# Processed by: cddbd v1.5.2PL0 Copyright (c) Steve Scherf et al.
# Submitted via: CDex 1.70beta2
#
DISCID=d40b8110
DTITLE=Various Artist - Distelhäuser - Jazz and Swing
DYEAR=2000
DGENRE=Jazz
TTITLE0=Benny Goodmann - Air mail special
TTITLE1=Louis Armstrong - What a wonderful world
TTITLE2=Duke Ellington - Pretty woman
TTITLE3=Gene Kupra - Drumin' man
TTITLE4=Nat King Cole - Unforgettable
TTITLE5=Quincy Jones - Take five
TTITLE6=Tommy Dorsey - On the sunny side of the street
TTITLE7=Andrew Sisters - Pennsilvania 6-5000
TTITLE8=Lena Horne - Night and day
TTITLE9=Count basie - Louisiana
TTITLE10=Glenn Miller - In the mood
TTITLE11=Ella Fitzgerald - 's wonderful
TTITLE12=Frank Sinatra - The lady is a tramp
TTITLE13=Luis Prima - Pennies from heaven
TTITLE14=Louis Armstrong - Hello dolly
TTITLE15=Benny Goodman - King porter stomp
EXTD=YEAR: 2000
EXTT0=
EXTT1=
EXTT2=
EXTT3=
EXTT4=
EXTT5=
EXTT6=
EXTT7=
EXTT8=
EXTT9=
EXTT10=
EXTT11=
EXTT12=
EXTT13=
EXTT14=
EXTT15=
PLAYORDER=
